<svg width="32" height="32" viewBox="0 0 32 32" fill="none" xmlns="http://www.w3.org/2000/svg">
<path d="M29.4115 7.69112C28.3615 6.36081 26.4227 5.81818 22.7202 5.81818H9.27968C5.49232 5.81818 3.5207 6.39582 2.47456 7.81211C1.45459 9.19301 1.45459 11.2277 1.45459 14.0437V19.4109C1.45459 24.8665 2.66477 27.6364 9.27968 27.6364H22.7202C25.9311 27.6364 27.7103 27.1577 28.8614 25.9836C30.0419 24.7796 30.5455 22.8141 30.5455 19.4109V14.0437C30.5455 11.074 30.4667 9.02731 29.4115 7.69112ZM20.1311 17.4684L14.0278 20.8676C13.8913 20.9437 13.7421 20.9814 13.5931 20.9814C13.4244 20.9814 13.256 20.9329 13.1069 20.8368C12.8261 20.6554 12.6547 20.3312 12.6547 19.9812V13.2044C12.6547 12.8552 12.8257 12.5312 13.1059 12.3497C13.3862 12.1683 13.7348 12.1559 14.0256 12.3169L20.1289 15.6944C20.4395 15.8662 20.6344 16.2078 20.6348 16.5805C20.6352 16.9536 20.4412 17.2957 20.1311 17.4684Z" fill="white"/>
</svg>
