<svg width="32" height="32" viewBox="0 0 32 32" fill="none" xmlns="http://www.w3.org/2000/svg">
<path d="M30.3912 23.0361C30.356 22.9562 30.3231 22.89 30.2925 22.8368C29.7878 21.8809 28.8234 20.7075 27.3996 19.3165L27.3695 19.2845L27.3546 19.269L27.3392 19.253H27.324C26.6777 18.6053 26.2685 18.1696 26.0973 17.9467C25.7839 17.5219 25.7135 17.0919 25.8849 16.6562C26.0059 16.3271 26.4607 15.632 27.248 14.5699C27.6622 14.007 27.9902 13.5559 28.2325 13.2161C29.9796 10.7736 30.737 9.21282 30.5046 8.53313L30.4143 8.3743C30.3536 8.27868 30.1972 8.1912 29.9449 8.11142C29.6923 8.03182 29.3692 8.01865 28.9754 8.07171L24.6134 8.10339C24.5427 8.07705 24.4417 8.07951 24.3103 8.11142C24.1791 8.14334 24.1133 8.15934 24.1133 8.15934L24.0374 8.19924L23.9772 8.24716C23.9267 8.27885 23.8711 8.33459 23.8104 8.41425C23.75 8.49363 23.6998 8.58681 23.6593 8.69297C23.1843 9.97786 22.6445 11.1725 22.0385 12.2768C21.6649 12.9353 21.3217 13.5059 21.0085 13.9891C20.6954 14.4722 20.4328 14.828 20.2209 15.0562C20.0086 15.2844 19.8172 15.4675 19.6452 15.6056C19.4736 15.7439 19.3425 15.8022 19.2517 15.7808C19.1607 15.7596 19.075 15.7384 18.9939 15.7172C18.8526 15.6215 18.739 15.4914 18.6533 15.3269C18.5673 15.1623 18.5093 14.9552 18.4792 14.7056C18.4488 14.4558 18.4311 14.2411 18.426 14.0605C18.4213 13.8802 18.4234 13.6251 18.4337 13.2959C18.4442 12.9666 18.4488 12.7437 18.4488 12.6269C18.4488 12.2233 18.4564 11.7853 18.4713 11.3128C18.4867 10.8403 18.499 10.4659 18.5093 10.19C18.5197 9.91392 18.5244 9.62182 18.5244 9.31387C18.5244 9.0059 18.5066 8.76438 18.4713 8.58909C18.4367 8.41403 18.3832 8.2441 18.3128 8.07935C18.242 7.91477 18.1383 7.78745 18.0023 7.69707C17.866 7.60681 17.6965 7.53518 17.4949 7.48196C16.9597 7.35458 16.2781 7.28568 15.4499 7.27497C13.5719 7.25377 12.3652 7.3813 11.83 7.65741C11.6179 7.77407 11.426 7.93346 11.2545 8.13508C11.0727 8.36878 11.0473 8.49632 11.1786 8.51729C11.7845 8.61275 12.2135 8.8411 12.466 9.20211L12.5569 9.39342C12.6277 9.53143 12.6984 9.7758 12.7691 10.1262C12.8397 10.4765 12.8853 10.8641 12.9053 11.2886C12.9557 12.0639 12.9557 12.7276 12.9053 13.2797C12.8548 13.832 12.807 14.262 12.7614 14.57C12.7159 14.8779 12.6478 15.1275 12.5569 15.3186C12.466 15.5097 12.4054 15.6265 12.3751 15.6689C12.3448 15.7114 12.3195 15.7381 12.2995 15.7485C12.1682 15.8014 12.0317 15.8283 11.8905 15.8283C11.749 15.8283 11.5774 15.754 11.3755 15.6051C11.1736 15.4564 10.9642 15.2522 10.747 14.9919C10.5299 14.7317 10.285 14.3681 10.0122 13.9008C9.73973 13.4336 9.45696 12.8815 9.16413 12.2444L8.92184 11.7823C8.77039 11.4851 8.56349 11.0523 8.30095 10.4843C8.03824 9.91606 7.80604 9.36641 7.60418 8.83545C7.52348 8.61246 7.40226 8.44269 7.24073 8.32587L7.16493 8.27795C7.11452 8.23556 7.03362 8.19054 6.92264 8.14255C6.8115 8.09462 6.69552 8.06027 6.57425 8.03912L2.42414 8.07082C2.00006 8.07082 1.71231 8.17185 1.5608 8.37363L1.50016 8.46909C1.46987 8.52225 1.45459 8.60717 1.45459 8.72405C1.45459 8.84088 1.48488 8.98426 1.54552 9.15401C2.15136 10.6514 2.8102 12.0955 3.52204 13.4866C4.23387 14.8776 4.85244 15.9982 5.37736 16.8472C5.90241 17.6968 6.4376 18.4987 6.9829 19.2523C7.52821 20.0064 7.88916 20.4895 8.06578 20.7019C8.2426 20.9145 8.38147 21.0736 8.48242 21.1797L8.86116 21.5619C9.1035 21.8168 9.45935 22.1221 9.92891 22.4778C10.3986 22.8336 10.9185 23.1839 11.489 23.5294C12.0596 23.8742 12.7235 24.1555 13.4809 24.3732C14.2382 24.591 14.9753 24.6785 15.6922 24.6364H17.4342C17.7873 24.6042 18.055 24.4875 18.2369 24.2859L18.2971 24.2061C18.3378 24.1426 18.3757 24.0443 18.4106 23.9116C18.4461 23.779 18.4636 23.6327 18.4636 23.4737C18.4533 23.0171 18.4864 22.6056 18.562 22.2394C18.6375 21.8732 18.7234 21.597 18.8197 21.4111C18.9159 21.2253 19.0244 21.0685 19.1453 20.9414C19.2663 20.8141 19.3526 20.737 19.4032 20.7105C19.4534 20.6837 19.4936 20.6656 19.524 20.6546C19.7662 20.5697 20.0515 20.652 20.38 20.9017C20.7081 21.1513 21.0162 21.4594 21.304 21.8256C21.5919 22.1921 21.9376 22.6035 22.3413 23.0599C22.7455 23.5166 23.0988 23.8561 23.4015 24.0794L23.7044 24.2705C23.9068 24.398 24.1692 24.5149 24.4925 24.621C24.8151 24.7272 25.0977 24.7538 25.3403 24.7007L29.2177 24.637C29.6013 24.637 29.8996 24.5703 30.1112 24.4378C30.3235 24.305 30.4494 24.1588 30.4899 23.9999C30.5306 23.8407 30.5328 23.6599 30.4976 23.458C30.4618 23.2565 30.4263 23.1156 30.3912 23.0361Z" fill="white"/>
</svg>
