<svg width="32" height="32" viewBox="0 0 32 32" fill="none" xmlns="http://www.w3.org/2000/svg">
<path d="M21.5927 2.91427L18.3861 2.90912C14.7836 2.90912 12.4556 5.29766 12.4556 8.99453V11.8003H9.2315C8.9529 11.8003 8.72729 12.0262 8.72729 12.3048V16.3701C8.72729 16.6488 8.95316 16.8742 9.2315 16.8742H12.4556V27.1322C12.4556 27.4108 12.6812 27.6364 12.9598 27.6364H17.1663C17.4448 27.6364 17.6704 27.4105 17.6704 27.1322V16.8742H21.4402C21.7187 16.8742 21.9443 16.6488 21.9443 16.3701L21.9459 12.3048C21.9459 12.171 21.8927 12.0429 21.7983 11.9482C21.7039 11.8536 21.5751 11.8003 21.4415 11.8003H17.6704V9.42182C17.6704 8.27862 17.9429 7.69827 19.432 7.69827L21.5922 7.6975C21.8706 7.6975 22.0962 7.47163 22.0962 7.19329V3.41847C22.0962 3.14038 21.8707 2.91478 21.5927 2.91427Z" fill="white"/>
</svg>
